inDegrees=yes
name=ik_S52_A04_T03
DataType=double
version=3
OpenSimVersion=4.3-2021-08-27-4bc7ad9
endheader
time	pelvis_tilt	pelvis_list	pelvis_rotation	pelvis_tx	pelvis_ty	pelvis_tz	hip_flexion_r	hip_adduction_r	hip_rotation_r	knee_angle_r	knee_angle_r_beta	ankle_angle_r	subtalar_angle_r	mtp_angle_r	hip_flexion_l	hip_adduction_l	hip_rotation_l	knee_angle_l	knee_angle_l_beta	ankle_angle_l	subtalar_angle_l	mtp_angle_l	lumbar_extension	lumbar_bending	lumbar_rotation	arm_flex_r	arm_add_r	arm_rot_r	elbow_flex_r	pro_sup_r	wrist_flex_r	wrist_dev_r	arm_flex_l	arm_add_l	arm_rot_l	elbow_flex_l	pro_sup_l	wrist_flex_l	wrist_dev_l
21.69999999999963	20.38296784029332	3.689674296177138	16.89663955967567	0	0.9399999999999999	0	7.949866981091964	-24.51048698916335	-0.979807396236921	38.79049920270193	0.6770219295793839	0	0	0	13.0252530615702	-18.72608716449238	-14.4792154485623	47.8445123755546	0.8350442699646016	0	0	0	0	0	0	28.99711925808311	-28.99711925808311	4.215093918405799	75.17749403839467	85.78490631913047	0	0	28.99711925808311	-28.99711925808311	4.215093918405799	75.17749403839467	85.78490631898305	0	0
21.71999999999963	20.36054777900693	3.541472182057974	16.55242280339502	0	0.9399999999999999	0	8.906143789504268	-24.75178571452172	-0.6280893586611765	39.92557360463735	0.6968327151482625	0	0	0	13.72240829291989	-19.12269528065624	-15.07527106476467	49.04325666402224	0.8559663046878386	0	0	0	0	0	0	29.00105758405363	-29.00105758405363	4.215476733810945	75.18233537730939	85.78452350374511	0	0	29.00105758405363	-29.00105758405363	4.215476733810945	75.18233537730939	85.78452350359777	0	0
21.73999999999963	19.55120420120096	3.432040386726962	16.61347062189591	0	0.9399999999999999	0	10.3359334591984	-25.3697384748295	-0.732287083524103	40.87984595074916	0.7134879095486445	0	0	0	15.19630578128796	-19.29361079392469	-14.99828824951739	50.15246920881484	0.8753257156988945	0	0	0	0	0	0	29.0082767462618	-29.0082767462618	4.216175194289944	75.19116708853123	85.78382504330222	0	0	29.0082767462618	-29.0082767462618	4.216175194289944	75.19116708853123	85.78382504315501	0	0
21.75999999999962	19.55684741601566	3.431933598751198	16.61520102297462	0	0.9399999999999999	0	10.91619677099907	-25.86977780619442	-0.8904873616139024	41.80542834204677	0.7296423697752703	0	0	0	16.09712865793501	-19.71542957631629	-14.28536535781602	51.13429362016139	0.892461784353347	0	0	0	0	0	0	29.01230154217625	-29.01230154217625	4.216567158591441	75.19612431094053	85.78343307902098	0	0	29.01230154217625	-29.01230154217625	4.216567158591441	75.19612431094053	85.78343307887381	0	0
21.77999999999962	19.72534018089513	3.202502695090938	16.33519985810987	0	0.9399999999999999	0	11.50757348912396	-26.12914769685411	-0.6625100241777818	42.68951043130444	0.7450725130907271	0	0	0	16.84599903740532	-20.55730810676036	-13.73632453124271	52.46043184999612	0.9156072628005323	0	0	0	0	0	0	29.01595259146067	-29.01595259146067	4.216922310503708	75.20061576215998	85.7830779271271	0	0	29.01595259146067	-29.01595259146067	4.216922310503708	75.20061576215998	85.78307792697996	0	0
21.79999999999962	20.12123981247166	3.146282572463586	15.90231023851182	0	0.9399999999999999	0	11.31831405578606	-25.86083197605125	-0.2440702225107475	43.04524552825751	0.7512812617974594	0	0	0	17.19343860880351	-21.05509676885892	-13.78400357470984	53.56541362874601	0.9348928330142614	0	0	0	0	0	0	29.01976118127175	-29.01976118127175	4.217292250502869	75.20529398248871	85.78270798714703	0	0	29.01976118127175	-29.01976118127175	4.217292250502869	75.20529398248871	85.78270798699999	0	0
21.81999999999962	20.23450736959506	3.124194345667504	15.5188322964636	0	0.9399999999999999	0	13.27562171591116	-27.00584656984833	0.1503499467022175	45.0745940117837	0.7867000745053453	0	0	0	17.5745768779559	-21.4817601391156	-14.22503187681219	54.46405250893282	0.950577040259956	0	0	0	0	0	0	29.12389813309237	-29.12389813309237	4.225924191433233	75.31386174570407	85.77407604665159	0	0	29.12389813309237	-29.12389813309237	4.225924191433233	75.31386174570407	85.77407604650615	0	0
21.83999999999962	20.15843204931272	3.134784244910429	15.5980652015176	0	0.9399999999999999	0	13.3006848217709	-27.01824276945072	0.01414626985604496	45.53391215918313	0.794716688491626	0	0	0	18.32645190868435	-21.70933774191979	-14.02355149486835	55.51412408266207	0.9689042466031299	0	0	0	0	0	0	29.1275667954649	-29.1275667954649	4.226276874904755	75.31831959913703	85.77372336319824	0	0	29.1275667954649	-29.1275667954649	4.226276874904755	75.31831959913703	85.77372336305297	0	0
21.85999999999962	20.06907709034526	3.169082209883493	15.76350707566059	0	0.9399999999999999	0	13.85356355933959	-27.79615408027714	-0.07562692166049785	46.30059219994751	0.8080977795122888	0	0	0	19.28630601543997	-21.83508881976191	-13.37386572876609	56.64103066735716	0.9885724768684636	0	0	0	0	0	0	29.13204310464975	-29.13204310464975	4.22670979172937	75.32379255531761	85.77329044639598	0	0	29.13204310464975	-29.13204310464975	4.22670979172937	75.32379255531761	85.77329044625081	0	0
21.87999999999962	20.31363463323579	3.084365747194004	15.53942703788986	0	0.9399999999999999	0	14.26764146339166	-28.16044128660462	0.2488759346081124	47.07911318716377	0.8216855340350891	0	0	0	20.72040229060633	-22.38186991533255	-13.16119724384935	58.41473568082154	1.019529469312547	0	0	0	0	0	0	29.13685118872977	-29.13685118872977	4.227174321759597	75.32966488424636	85.77282591638971	0	0	29.13685118872977	-29.13685118872977	4.227174321759597	75.32966488424636	85.77282591624463	0	0
21.89999999999962	20.73403755011498	3.020869605745116	15.07346249663216	0	0.9399999999999999	0	14.79187649103612	-28.31994324693636	1.059307336810343	47.89006118342474	0.8358392466322938	0	0	0	20.98635479819722	-22.81366173766177	-13.54171431438631	59.5860275416723	1.039972368786204	0	0	0	0	0	0	29.14155252750133	-29.14155252750133	4.227628852834664	75.3354109196467	85.77237138533809	0	0	29.14155252750133	-29.14155252750133	4.227628852834664	75.3354109196467	85.77237138519317	0	0
21.91999999999962	20.73873878457713	3.037063441138193	14.95130865272532	0	0.9399999999999999	0	15.60336608809001	-28.68047398688554	1.599425147338069	48.53138320597277	0.8470324274913063	0	0	0	20.92950680883839	-22.81496120103535	-13.6535733349795	59.77989347231279	1.043355967583324	0	0	0	0	0	0	29.14383277508488	-29.14383277508488	4.22784824966433	75.33818403504449	85.77215198851975	0	0	29.14383277508488	-29.14383277508488	4.22784824966433	75.33818403504449	85.77215198837486	0	0
21.93999999999962	20.91023065754324	3.206968252560226	15.24085852749151	0	0.9399999999999999	0	16.07758898392542	-29.28554730064423	1.477762199528639	49.45270703522485	0.863112561788837	0	0	0	21.71169246650662	-22.77030559282498	-13.15094087620513	60.75818411061332	1.060430360263105	0	0	0	0	0	0	29.14715230305595	-29.14715230305595	4.22816882695664	75.34223647907186	85.77183141124399	0	0	29.14715230305595	-29.14715230305595	4.22816882695664	75.34223647907186	85.77183141109911	0	0
21.95999999999962	21.00671788592292	3.331909732667573	15.59823835630514	0	0.9399999999999999	0	16.62322349848246	-29.92820114822486	1.33160031276393	50.27172923701485	0.877407195857006	0	0	0	21.72986357696511	-22.52041574775671	-12.7794312225443	60.87040341254478	1.062388956566099	0	0	0	0	0	0	29.15102196712142	-29.15102196712142	4.22854240948727	75.34695888669874	85.77145782873258	0	0	29.15102196712142	-29.15102196712142	4.22854240948727	75.34695888669874	85.77145782858786	0	0
21.97999999999962	21.04023134561303	3.303318247509485	15.59203301395302	0	0.9399999999999999	0	17.49928247509634	-30.31130124740253	1.647600341903257	51.18632419870921	0.8933698892607239	0	0	0	23.75570230901326	-23.25737464065591	-11.81032063236632	63.06254133230497	1.100648980923733	0	0	0	0	0	0	29.15729570732857	-29.15729570732857	4.22914810562366	75.35461528736023	85.77085213262747	0	0	29.15729570732857	-29.15729570732857	4.22914810562366	75.35461528736023	85.7708521324829	0	0
21.99999999999962	21.02025157664606	3.301047906475433	15.58601629958265	0	0.9399999999999999	0	18.50622337002557	-30.63987890820773	2.012272687423263	52.08414838370049	0.9090398773928564	0	0	0	24.81681963482078	-23.58222367819084	-11.41040001431251	64.22938066259064	1.121014169078984	0	0	0	0	0	0	29.16039173042641	-29.16039173042641	4.229446530589694	75.35838738105922	85.77055370767684	0	0	29.16039173042641	-29.16039173042641	4.229446530589694	75.35838738105922	85.77055370753233	0	0
22.01999999999962	21.87072393074532	3.278120061400902	14.99475649474718	0	0.9399999999999999	0	18.9356575821013	-30.66940941440999	2.933940932676105	52.86889213830934	0.9227362396952433	0	0	0	24.78797009036684	-24.39361227490136	-11.56179057944452	65.32451811776751	1.140127923433732	0	0	0	0	0	0	29.16351970842699	-29.16351970842699	4.229748142158901	75.36219977105391	85.77025209612326	0	0	29.16351970842699	-29.16351970842699	4.229748142158901	75.36219977105391	85.77025209597871	0	0
22.03999999999962	22.19489865472226	3.343407466669156	15.14560842034761	0	0.9399999999999999	0	20.46003817553574	-31.54027100898679	3.55347020739726	54.57779028162918	0.9525621388773924	0	0	0	25.67552826236707	-24.73695233032373	-10.75453040796757	66.42609531889772	1.159354072558358	0	0	0	0	0	0	29.16837692277205	-29.16837692277205	4.230216554384401	75.36812047115615	85.76978368392191	0	0	29.16837692277205	-29.16837692277205	4.230216554384401	75.36812047115615	85.76978368377743	0	0
